<svg width="14" height="14" viewBox="0 0 14 14" fill="none" xmlns="http://www.w3.org/2000/svg">
<path d="M5.07942 13.0902C4.98989 13.0524 4.91549 12.9858 4.86796 12.9011C4.82043 12.8163 4.80247 12.7181 4.81692 12.622L5.61317 7.43766H3.50005C3.43306 7.43946 3.36654 7.42585 3.30565 7.39787C3.24475 7.36989 3.19109 7.3283 3.14882 7.2763C3.10654 7.2243 3.07677 7.16329 3.06182 7.09796C3.04686 7.03263 3.04711 6.96475 3.06255 6.89953L4.37505 1.21203C4.39814 1.11415 4.45426 1.02721 4.53394 0.965856C4.61362 0.904499 4.71201 0.872469 4.81255 0.875156H9.18755C9.25291 0.874934 9.31749 0.889359 9.37654 0.917372C9.43559 0.945384 9.48762 0.986272 9.5288 1.03703C9.57056 1.08836 9.60013 1.1485 9.61528 1.21291C9.63044 1.27733 9.63079 1.34434 9.6163 1.40891L8.85942 4.81266H10.9375C11.0195 4.81249 11.0999 4.83537 11.1696 4.87869C11.2392 4.92201 11.2952 4.98402 11.3313 5.05766C11.3626 5.12833 11.3747 5.20605 11.3663 5.2829C11.3578 5.35975 11.3291 5.43299 11.2832 5.49516L5.59567 12.9327C5.55723 12.9896 5.50591 13.0368 5.44586 13.0702C5.38581 13.1036 5.31873 13.1225 5.25005 13.1252C5.19151 13.1241 5.13367 13.1122 5.07942 13.0902Z" fill="white"/>
</svg>
