<svg width="18" height="19" viewBox="0 0 18 19" fill="none" xmlns="http://www.w3.org/2000/svg">
<path d="M6.5311 17.3302C6.41599 17.2816 6.32033 17.1961 6.25922 17.0871C6.19811 16.9781 6.17502 16.8519 6.19361 16.7283L7.21736 10.0627H4.50048C4.41435 10.065 4.32883 10.0475 4.25054 10.0115C4.17224 9.97558 4.10325 9.9221 4.0489 9.85525C3.99454 9.78839 3.95627 9.70994 3.93704 9.62595C3.91781 9.54196 3.91813 9.45467 3.93798 9.37083L5.62548 2.05833C5.65517 1.93248 5.72732 1.8207 5.82977 1.74181C5.93222 1.66293 6.05872 1.62175 6.18798 1.6252H11.813C11.897 1.62492 11.98 1.64346 12.056 1.67948C12.1319 1.71549 12.1988 1.76806 12.2517 1.83333C12.3054 1.89932 12.3434 1.97664 12.3629 2.05946C12.3824 2.14228 12.3829 2.22844 12.3642 2.31145L11.3911 6.6877H14.063C14.1684 6.68749 14.2718 6.71691 14.3613 6.77261C14.4508 6.8283 14.5228 6.90803 14.5692 7.0027C14.6095 7.09357 14.625 7.19349 14.6142 7.2923C14.6033 7.39111 14.5665 7.48527 14.5074 7.5652L7.19485 17.1277C7.14543 17.201 7.07945 17.2615 7.00224 17.3045C6.92504 17.3475 6.83879 17.3718 6.75048 17.3752C6.67521 17.3738 6.60085 17.3585 6.5311 17.3302Z" fill="#E02D4D"/>
</svg>
